<svg width="24" height="24" viewBox="0 0 24 24" fill="none" xmlns="http://www.w3.org/2000/svg">
<path d="M1.61748 19H3.15235C3.54048 19 3.76983 18.7593 3.76983 18.3519V13.037H8.35681V18.3519C8.35681 18.7593 8.58616 19 8.97429 19H10.4915C10.8797 19 11.109 18.7593 11.109 18.3519V5.90741C11.109 5.5 10.8797 5.25926 10.4915 5.25926H8.97429C8.58616 5.25926 8.35681 5.5 8.35681 5.90741V10.4074H3.76983V5.90741C3.76983 5.5 3.54048 5.25926 3.15235 5.25926H1.61748C1.22935 5.25926 1 5.5 1 5.90741V18.3519C1 18.7593 1.22935 19 1.61748 19Z" fill="currentColor"/>
<path d="M14.6023 19H22.3825C22.7707 19 23 18.7593 23 18.3519V17.0185C23 16.6111 22.7707 16.3704 22.3825 16.3704H17.9543L19.2069 15.1481C21.077 13.3333 22.3825 11.4815 22.3825 9.53704C22.3825 6.68519 20.4948 5 17.919 5C16.2607 5 14.9904 5.5 13.8437 6.81481C13.7202 6.96296 13.6673 7.11111 13.6673 7.24074C13.6673 7.42593 13.7555 7.59259 13.9143 7.74074L14.7611 8.48148C14.9022 8.61111 15.0257 8.66667 15.1669 8.66667C15.3256 8.66667 15.4844 8.57407 15.6432 8.40741C16.2077 7.7963 16.8429 7.48148 17.5662 7.48148C18.7129 7.48148 19.6127 8.2963 19.6127 9.53704C19.6127 10.8704 18.8894 12.0926 16.9311 14.0741L14.3024 16.7037C14.073 16.9259 13.9848 17.1667 13.9848 17.5V18.3519C13.9848 18.7593 14.2142 19 14.6023 19Z" fill="currentColor"/>
</svg>
